<?xml version="1.0" encoding="UTF-8" standalone="no"?>
<!DOCTYPE svg PUBLIC "-//W3C//DTD SVG 1.1//EN"
 "http://www.w3.org/Graphics/SVG/1.1/DTD/svg11.dtd">
<!-- Generated by graphviz version 2.47.0 (20210316.0004)
 -->
<!-- Title: dependencies Pages: 1 -->
<svg width="2870pt" height="284pt"
 viewBox="0.00 0.00 2870.00 284.00" xmlns="http://www.w3.org/2000/svg" xmlns:xlink="http://www.w3.org/1999/xlink">
<g id="graph0" class="graph" transform="scale(1 1) rotate(0) translate(4 280)">
<title>dependencies</title>
<polygon fill="white" stroke="transparent" points="-4,4 -4,-280 2866,-280 2866,4 -4,4"/>
<text text-anchor="start" x="1410.01" y="-42.4" font-family="Times-12" font-weight="bold" font-size="14.00">Legend</text>
<polygon fill="#ffffb3" stroke="transparent" points="1197,-10 1197,-30 1217,-30 1217,-10 1197,-10"/>
<text text-anchor="start" x="1220.63" y="-15.4" font-family="Times-12" font-size="14.00"> &#160;Declarations</text>
<polygon fill="#8dd3c7" stroke="transparent" points="1310,-10 1310,-30 1330,-30 1330,-10 1310,-10"/>
<text text-anchor="start" x="1333.73" y="-15.4" font-family="Times-12" font-size="14.00"> &#160;Module</text>
<polygon fill="#80b1d3" stroke="transparent" points="1396,-10 1396,-30 1416,-30 1416,-10 1396,-10"/>
<text text-anchor="start" x="1419.78" y="-15.4" font-family="Times-12" font-size="14.00"> &#160;Bootstrap</text>
<polygon fill="#fdb462" stroke="transparent" points="1493,-10 1493,-30 1513,-30 1513,-10 1493,-10"/>
<text text-anchor="start" x="1516.67" y="-15.4" font-family="Times-12" font-size="14.00"> &#160;Providers</text>
<polygon fill="#fb8072" stroke="transparent" points="1589,-10 1589,-30 1609,-30 1609,-10 1589,-10"/>
<text text-anchor="start" x="1612.73" y="-15.4" font-family="Times-12" font-size="14.00"> &#160;Exports</text>
<g id="clust1" class="cluster">
<title>cluster_AppModule</title>
<polygon fill="none" stroke="black" stroke-dasharray="1,5" points="8,-70 8,-268 2854,-268 2854,-70 8,-70"/>
</g>
<g id="clust2" class="cluster">
<title>cluster_AppModule_declarations</title>
<polygon fill="none" stroke="black" points="285,-78 285,-130 2846,-130 2846,-78 285,-78"/>
</g>
<g id="clust19" class="cluster">
<title>cluster_AppModule_imports</title>
<polygon fill="none" stroke="black" points="16,-78 16,-130 277,-130 277,-78 16,-78"/>
</g>
<g id="clust21" class="cluster">
<title>cluster_AppModule_bootstrap</title>
<polygon fill="none" stroke="black" points="1293,-208 1293,-260 1417,-260 1417,-208 1293,-208"/>
</g>
<!-- AddUserReactiveComponent -->
<g id="node1" class="node">
<title>AddUserReactiveComponent</title>
<polygon fill="#ffffb3" stroke="black" points="2838.34,-122 2657.66,-122 2657.66,-86 2838.34,-86 2838.34,-122"/>
<text text-anchor="middle" x="2748" y="-99.8" font-family="Times,serif" font-size="14.00">AddUserReactiveComponent</text>
</g>
<!-- AppModule -->
<g id="node17" class="node">
<title>AppModule</title>
<polygon fill="#8dd3c7" stroke="black" points="1396.66,-187 1393.66,-191 1372.66,-191 1369.66,-187 1313.34,-187 1313.34,-151 1396.66,-151 1396.66,-187"/>
<text text-anchor="middle" x="1355" y="-164.8" font-family="Times,serif" font-size="14.00">AppModule</text>
</g>
<!-- AddUserReactiveComponent&#45;&gt;AppModule -->
<g id="edge1" class="edge">
<title>AddUserReactiveComponent&#45;&gt;AppModule</title>
<path fill="none" stroke="black" d="M2748,-122.32C2748,-145.66 2748,-183 2748,-183 2748,-183 1406.69,-183 1406.69,-183"/>
<polygon fill="black" stroke="black" points="1406.69,-179.5 1396.69,-183 1406.69,-186.5 1406.69,-179.5"/>
</g>
<!-- AddUserTemplateComponent -->
<g id="node2" class="node">
<title>AddUserTemplateComponent</title>
<polygon fill="#ffffb3" stroke="black" points="2639.23,-122 2454.77,-122 2454.77,-86 2639.23,-86 2639.23,-122"/>
<text text-anchor="middle" x="2547" y="-99.8" font-family="Times,serif" font-size="14.00">AddUserTemplateComponent</text>
</g>
<!-- AddUserTemplateComponent&#45;&gt;AppModule -->
<g id="edge2" class="edge">
<title>AddUserTemplateComponent&#45;&gt;AppModule</title>
<path fill="none" stroke="black" d="M2547,-122.16C2547,-144.35 2547,-179 2547,-179 2547,-179 1406.72,-179 1406.72,-179"/>
<polygon fill="black" stroke="black" points="1406.73,-175.5 1396.72,-179 1406.72,-182.5 1406.73,-175.5"/>
</g>
<!-- AnimalFavDialogComponent -->
<g id="node3" class="node">
<title>AnimalFavDialogComponent</title>
<polygon fill="#ffffb3" stroke="black" points="2436.43,-122 2253.57,-122 2253.57,-86 2436.43,-86 2436.43,-122"/>
<text text-anchor="middle" x="2345" y="-99.8" font-family="Times,serif" font-size="14.00">AnimalFavDialogComponent</text>
</g>
<!-- AnimalFavDialogComponent&#45;&gt;AppModule -->
<g id="edge3" class="edge">
<title>AnimalFavDialogComponent&#45;&gt;AppModule</title>
<path fill="none" stroke="black" d="M2345,-122.28C2345,-143.32 2345,-175 2345,-175 2345,-175 1406.91,-175 1406.91,-175"/>
<polygon fill="black" stroke="black" points="1406.91,-171.5 1396.91,-175 1406.91,-178.5 1406.91,-171.5"/>
</g>
<!-- AppComponent -->
<g id="node4" class="node">
<title>AppComponent</title>
<polygon fill="#ffffb3" stroke="black" points="2235.94,-122 2130.06,-122 2130.06,-86 2235.94,-86 2235.94,-122"/>
<text text-anchor="middle" x="2183" y="-99.8" font-family="Times,serif" font-size="14.00">AppComponent</text>
</g>
<!-- AppComponent&#45;&gt;AppModule -->
<g id="edge4" class="edge">
<title>AppComponent&#45;&gt;AppModule</title>
<path fill="none" stroke="black" d="M2183,-122.31C2183,-142.15 2183,-171 2183,-171 2183,-171 1406.91,-171 1406.91,-171"/>
<polygon fill="black" stroke="black" points="1406.91,-167.5 1396.91,-171 1406.91,-174.5 1406.91,-167.5"/>
</g>
<!-- ColorComponent -->
<g id="node5" class="node">
<title>ColorComponent</title>
<polygon fill="#ffffb3" stroke="black" points="2112.72,-122 1999.28,-122 1999.28,-86 2112.72,-86 2112.72,-122"/>
<text text-anchor="middle" x="2056" y="-99.8" font-family="Times,serif" font-size="14.00">ColorComponent</text>
</g>
<!-- ColorComponent&#45;&gt;AppModule -->
<g id="edge5" class="edge">
<title>ColorComponent&#45;&gt;AppModule</title>
<path fill="none" stroke="black" d="M2056,-122.22C2056,-140.83 2056,-167 2056,-167 2056,-167 1406.75,-167 1406.75,-167"/>
<polygon fill="black" stroke="black" points="1406.75,-163.5 1396.75,-167 1406.75,-170.5 1406.75,-163.5"/>
</g>
<!-- FavAnimalFormComponent -->
<g id="node6" class="node">
<title>FavAnimalFormComponent</title>
<polygon fill="#ffffb3" stroke="black" points="1981.16,-122 1806.84,-122 1806.84,-86 1981.16,-86 1981.16,-122"/>
<text text-anchor="middle" x="1894" y="-99.8" font-family="Times,serif" font-size="14.00">FavAnimalFormComponent</text>
</g>
<!-- FavAnimalFormComponent&#45;&gt;AppModule -->
<g id="edge6" class="edge">
<title>FavAnimalFormComponent&#45;&gt;AppModule</title>
<path fill="none" stroke="black" d="M1894,-122.02C1894,-139.37 1894,-163 1894,-163 1894,-163 1406.85,-163 1406.85,-163"/>
<polygon fill="black" stroke="black" points="1406.85,-159.5 1396.85,-163 1406.85,-166.5 1406.85,-159.5"/>
</g>
<!-- GeneralCarComponent -->
<g id="node7" class="node">
<title>GeneralCarComponent</title>
<polygon fill="#ffffb3" stroke="black" points="1788.85,-122 1643.15,-122 1643.15,-86 1788.85,-86 1788.85,-122"/>
<text text-anchor="middle" x="1716" y="-99.8" font-family="Times,serif" font-size="14.00">GeneralCarComponent</text>
</g>
<!-- GeneralCarComponent&#45;&gt;AppModule -->
<g id="edge7" class="edge">
<title>GeneralCarComponent&#45;&gt;AppModule</title>
<path fill="none" stroke="black" d="M1716,-122.01C1716,-138.05 1716,-159 1716,-159 1716,-159 1406.76,-159 1406.76,-159"/>
<polygon fill="black" stroke="black" points="1406.76,-155.5 1396.76,-159 1406.76,-162.5 1406.76,-155.5"/>
</g>
<!-- HomeComponent -->
<g id="node8" class="node">
<title>HomeComponent</title>
<polygon fill="#ffffb3" stroke="black" points="1624.55,-122 1509.45,-122 1509.45,-86 1624.55,-86 1624.55,-122"/>
<text text-anchor="middle" x="1567" y="-99.8" font-family="Times,serif" font-size="14.00">HomeComponent</text>
</g>
<!-- HomeComponent&#45;&gt;AppModule -->
<g id="edge8" class="edge">
<title>HomeComponent&#45;&gt;AppModule</title>
<path fill="none" stroke="black" d="M1567,-122.12C1567,-136.78 1567,-155 1567,-155 1567,-155 1406.88,-155 1406.88,-155"/>
<polygon fill="black" stroke="black" points="1406.88,-151.5 1396.88,-155 1406.88,-158.5 1406.88,-151.5"/>
</g>
<!-- MenuComponent -->
<g id="node9" class="node">
<title>MenuComponent</title>
<polygon fill="#ffffb3" stroke="black" points="1490.99,-122 1377.01,-122 1377.01,-86 1490.99,-86 1490.99,-122"/>
<text text-anchor="middle" x="1434" y="-99.8" font-family="Times,serif" font-size="14.00">MenuComponent</text>
</g>
<!-- MenuComponent&#45;&gt;AppModule -->
<g id="edge9" class="edge">
<title>MenuComponent&#45;&gt;AppModule</title>
<path fill="none" stroke="black" d="M1386.92,-122.11C1386.92,-122.11 1386.92,-140.99 1386.92,-140.99"/>
<polygon fill="black" stroke="black" points="1383.42,-140.99 1386.92,-150.99 1390.42,-140.99 1383.42,-140.99"/>
</g>
<!-- PageNotFoundComponent -->
<g id="node10" class="node">
<title>PageNotFoundComponent</title>
<polygon fill="#ffffb3" stroke="black" points="1358.82,-122 1193.18,-122 1193.18,-86 1358.82,-86 1358.82,-122"/>
<text text-anchor="middle" x="1276" y="-99.8" font-family="Times,serif" font-size="14.00">PageNotFoundComponent</text>
</g>
<!-- PageNotFoundComponent&#45;&gt;AppModule -->
<g id="edge10" class="edge">
<title>PageNotFoundComponent&#45;&gt;AppModule</title>
<path fill="none" stroke="black" d="M1335.92,-122.11C1335.92,-122.11 1335.92,-140.99 1335.92,-140.99"/>
<polygon fill="black" stroke="black" points="1332.42,-140.99 1335.92,-150.99 1339.42,-140.99 1332.42,-140.99"/>
</g>
<!-- StaticUsersComponent -->
<g id="node11" class="node">
<title>StaticUsersComponent</title>
<polygon fill="#ffffb3" stroke="black" points="1175.59,-122 1030.41,-122 1030.41,-86 1175.59,-86 1175.59,-122"/>
<text text-anchor="middle" x="1103" y="-99.8" font-family="Times,serif" font-size="14.00">StaticUsersComponent</text>
</g>
<!-- StaticUsersComponent&#45;&gt;AppModule -->
<g id="edge11" class="edge">
<title>StaticUsersComponent&#45;&gt;AppModule</title>
<path fill="none" stroke="black" d="M1103,-122.12C1103,-136.78 1103,-155 1103,-155 1103,-155 1303.1,-155 1303.1,-155"/>
<polygon fill="black" stroke="black" points="1303.1,-158.5 1313.1,-155 1303.1,-151.5 1303.1,-158.5"/>
</g>
<!-- SuvCarComponent -->
<g id="node12" class="node">
<title>SuvCarComponent</title>
<polygon fill="#ffffb3" stroke="black" points="1012.83,-122 889.17,-122 889.17,-86 1012.83,-86 1012.83,-122"/>
<text text-anchor="middle" x="951" y="-99.8" font-family="Times,serif" font-size="14.00">SuvCarComponent</text>
</g>
<!-- SuvCarComponent&#45;&gt;AppModule -->
<g id="edge12" class="edge">
<title>SuvCarComponent&#45;&gt;AppModule</title>
<path fill="none" stroke="black" d="M951,-122.01C951,-138.05 951,-159 951,-159 951,-159 1303.29,-159 1303.29,-159"/>
<polygon fill="black" stroke="black" points="1303.29,-162.5 1313.29,-159 1303.29,-155.5 1303.29,-162.5"/>
</g>
<!-- UserCardComponent -->
<g id="node13" class="node">
<title>UserCardComponent</title>
<polygon fill="#ffffb3" stroke="black" points="871.47,-122 736.53,-122 736.53,-86 871.47,-86 871.47,-122"/>
<text text-anchor="middle" x="804" y="-99.8" font-family="Times,serif" font-size="14.00">UserCardComponent</text>
</g>
<!-- UserCardComponent&#45;&gt;AppModule -->
<g id="edge13" class="edge">
<title>UserCardComponent&#45;&gt;AppModule</title>
<path fill="none" stroke="black" d="M804,-122.02C804,-139.37 804,-163 804,-163 804,-163 1303.13,-163 1303.13,-163"/>
<polygon fill="black" stroke="black" points="1303.13,-166.5 1313.13,-163 1303.13,-159.5 1303.13,-166.5"/>
</g>
<!-- UserComponent -->
<g id="node14" class="node">
<title>UserComponent</title>
<polygon fill="#ffffb3" stroke="black" points="718.76,-122 611.24,-122 611.24,-86 718.76,-86 718.76,-122"/>
<text text-anchor="middle" x="665" y="-99.8" font-family="Times,serif" font-size="14.00">UserComponent</text>
</g>
<!-- UserComponent&#45;&gt;AppModule -->
<g id="edge14" class="edge">
<title>UserComponent&#45;&gt;AppModule</title>
<path fill="none" stroke="black" d="M665,-122.22C665,-140.83 665,-167 665,-167 665,-167 1303.13,-167 1303.13,-167"/>
<polygon fill="black" stroke="black" points="1303.13,-170.5 1313.13,-167 1303.13,-163.5 1303.13,-170.5"/>
</g>
<!-- UserDashboardComponent -->
<g id="node15" class="node">
<title>UserDashboardComponent</title>
<polygon fill="#ffffb3" stroke="black" points="593.4,-122 424.6,-122 424.6,-86 593.4,-86 593.4,-122"/>
<text text-anchor="middle" x="509" y="-99.8" font-family="Times,serif" font-size="14.00">UserDashboardComponent</text>
</g>
<!-- UserDashboardComponent&#45;&gt;AppModule -->
<g id="edge15" class="edge">
<title>UserDashboardComponent&#45;&gt;AppModule</title>
<path fill="none" stroke="black" d="M509,-122.31C509,-142.15 509,-171 509,-171 509,-171 1303.34,-171 1303.34,-171"/>
<polygon fill="black" stroke="black" points="1303.34,-174.5 1313.34,-171 1303.34,-167.5 1303.34,-174.5"/>
</g>
<!-- UsersComponent -->
<g id="node16" class="node">
<title>UsersComponent</title>
<polygon fill="#ffffb3" stroke="black" points="406.7,-122 293.3,-122 293.3,-86 406.7,-86 406.7,-122"/>
<text text-anchor="middle" x="350" y="-99.8" font-family="Times,serif" font-size="14.00">UsersComponent</text>
</g>
<!-- UsersComponent&#45;&gt;AppModule -->
<g id="edge16" class="edge">
<title>UsersComponent&#45;&gt;AppModule</title>
<path fill="none" stroke="black" d="M350,-122.28C350,-143.32 350,-175 350,-175 350,-175 1303.1,-175 1303.1,-175"/>
<polygon fill="black" stroke="black" points="1303.1,-178.5 1313.1,-175 1303.1,-171.5 1303.1,-178.5"/>
</g>
<!-- AppComponent  -->
<g id="node20" class="node">
<title>AppComponent </title>
<polygon fill="#80b1d3" stroke="black" points="1409.44,-252 1300.56,-252 1300.56,-216 1409.44,-216 1409.44,-252"/>
<text text-anchor="middle" x="1355" y="-229.8" font-family="Times,serif" font-size="14.00">AppComponent </text>
</g>
<!-- AppModule&#45;&gt;AppComponent  -->
<g id="edge19" class="edge">
<title>AppModule&#45;&gt;AppComponent </title>
<path fill="none" stroke="black" stroke-dasharray="1,5" d="M1355,-187.11C1355,-187.11 1355,-205.99 1355,-205.99"/>
<polygon fill="black" stroke="black" points="1351.5,-205.99 1355,-215.99 1358.5,-205.99 1351.5,-205.99"/>
</g>
<!-- AppRoutingModule -->
<g id="node18" class="node">
<title>AppRoutingModule</title>
<polygon fill="#8dd3c7" stroke="black" points="269.27,-122 266.27,-126 245.27,-126 242.27,-122 140.73,-122 140.73,-86 269.27,-86 269.27,-122"/>
<text text-anchor="middle" x="205" y="-99.8" font-family="Times,serif" font-size="14.00">AppRoutingModule</text>
</g>
<!-- AppRoutingModule&#45;&gt;AppModule -->
<g id="edge17" class="edge">
<title>AppRoutingModule&#45;&gt;AppModule</title>
<path fill="none" stroke="black" d="M205,-122.16C205,-144.35 205,-179 205,-179 205,-179 1303.05,-179 1303.05,-179"/>
<polygon fill="black" stroke="black" points="1303.05,-182.5 1313.05,-179 1303.05,-175.5 1303.05,-182.5"/>
</g>
<!-- SharedModule -->
<g id="node19" class="node">
<title>SharedModule</title>
<polygon fill="#8dd3c7" stroke="black" points="122.42,-122 119.42,-126 98.42,-126 95.42,-122 23.58,-122 23.58,-86 122.42,-86 122.42,-122"/>
<text text-anchor="middle" x="73" y="-99.8" font-family="Times,serif" font-size="14.00">SharedModule</text>
</g>
<!-- SharedModule&#45;&gt;AppModule -->
<g id="edge18" class="edge">
<title>SharedModule&#45;&gt;AppModule</title>
<path fill="none" stroke="black" d="M73,-122.32C73,-145.66 73,-183 73,-183 73,-183 1303.07,-183 1303.07,-183"/>
<polygon fill="black" stroke="black" points="1303.07,-186.5 1313.07,-183 1303.07,-179.5 1303.07,-186.5"/>
</g>
</g>
</svg>
